<svg xmlns="http://www.w3.org/2000/svg" viewBox="0 0 127.44 57.82"><g id="Layer_2" data-name="Layer 2"><g id="Layer_1-2" data-name="Layer 1"><path d="M60.86,51.26c-.2,2.67-1.53,3.38-3.57,2.86-4.65-1.19-9.29-2.4-13.91-3.69-9-2.52-7.13-.4-10.25-9.74q-6-17.89-11.66-35.88a3.93,3.93,0,0,1,.45-3.16c.4-.49,2-.43,2.89,0,6.49,2.93,13,5.93,19.36,9.08a6.87,6.87,0,0,1,3.35,3.08C51.77,25.12,55.8,36.56,59.88,48,60.3,49.16,60.6,50.39,60.86,51.26Zm-6.32-2.39a8.74,8.74,0,0,0-.14-1.3Q49,32,43.61,16.55a4.11,4.11,0,0,0-1.53-2.16c-4.88-2.65-9.83-5.16-14.85-7.76-.13.58-.24.78-.2.92Q33,25.61,38.92,43.65c.18.55.63,1.3,1.09,1.43C44.77,46.39,49.56,47.59,54.54,48.87Z"/><path d="M74.69,18.38C68.5,16.19,63.33,12,56.91,8.53L71.18,50.07c5.65-4.09,11-7.92,16.7-12-5.49-2.14-10.47-4-15.38-6-1.72-.7-4.57-1.1-3.55-3.8s3.37-1.13,5.12-.44c5.82,2.3,11.61,4.67,17.39,7.05,3.43,1.41,3.73,3.29.79,5.4Q82.53,47.17,72.7,54c-2.64,1.85-4,1.4-5.09-1.66Q59.72,29.21,52,6c-.32-1,.13-2.18.23-3.28,1.15.16,2.54,0,3.42.53C61.3,7,66.89,10.85,72.47,14.74a26,26,0,0,1,2.87,2.69Z"/><path d="M104.36,46.81l16.85-1.14c-.87-1-1.4-1.65-2-2.25Q102.74,27,86.25,10.56c-.38-.39-.9-.71-1.12-1.18-.34-.76-.92-2-.62-2.36A3.43,3.43,0,0,1,87,6.12,20.52,20.52,0,0,1,91,7c7.89,2.05,15.8,4.05,23.66,6.22,1.21.33,2.21,1.45,3.31,2.2a15.12,15.12,0,0,1-3,2.68c-2.44,1.21-4.85,2.82-8.7,2.21L111,15.93l-17.7-4.59-.39.53c.61.67,1.2,1.36,1.85,2,10.31,10.21,20.65,20.4,30.91,30.67.86.85,1.18,2.23,1.75,3.37-1.16.54-2.3,1.46-3.5,1.54-7.51.5-15,.86-22.56,1.13-.94,0-2.39-.42-2.73-1.09s.24-2,.81-2.81A28.77,28.77,0,0,1,103.6,42c.71-.62,2-.55,3.06-.79a13.06,13.06,0,0,1-.33,3.15C106.06,45.14,105.26,45.73,104.36,46.81Z"/><path d="M10.32,50.59l13-13.49c.44-.45.81-1.17,1.33-1.31a25.57,25.57,0,0,1,3.63-.5c0,1.21.46,2.9-.16,3.57C22.44,45,16.64,51,10.76,56.88c-1.82,1.83-3.87.9-4.33-2-.8-5-1.44-10-2.08-15.08Q2.17,22.58.1,5.3A43.53,43.53,0,0,1,.07.19L1.39,0A33.25,33.25,0,0,1,2.84,4.61c2.24,13.58,4.41,27.18,6.6,40.78C9.68,46.87,9.94,48.36,10.32,50.59Z"/></g></g></svg>