<?xml version="1.0" encoding="utf-8"?>
<!-- Generator: Adobe Illustrator 25.0.0, SVG Export Plug-In . SVG Version: 6.00 Build 0)  -->
<svg version="1.1" id="Layer_1" xmlns="http://www.w3.org/2000/svg" xmlns:xlink="http://www.w3.org/1999/xlink" x="0px" y="0px"
	 viewBox="0 0 396.2 64.5" style="enable-background:new 0 0 396.2 64.5;" xml:space="preserve">
<style type="text/css">
	.st0{display:none;}
</style>
<path d="M192.5,19.7c-2.6,2-5,3.9-7.4,5.9c-0.2,0.2-0.2,0.9,0,1.2c2,4.5,4.2,8.9,6.2,13.4c2.2,4.9,4.4,9.8,6.6,14.8
	c0.3,0.7,0.5,1.4,0.6,2.1c0,0.5-0.2,0.9-0.6,1.2c-0.5,0.1-1,0-1.3-0.3c-0.5-0.6-1-1.3-1.3-2c-3.8-8-7.6-15.9-11.4-23.8
	c-0.6-1.3-1.2-2.6-1.9-4.1c-0.4,0.3-0.7,0.5-1.1,0.7c-1.7,1.2-3.4,2.5-5.1,3.7c-0.7,0.5-1.5,0.7-2.1,0s-0.2-1.5,0.4-2.1
	c1.9-1.5,3.7-3,5.6-4.5c0.6-0.3,0.8-1,0.5-1.6c0-0.1-0.1-0.1-0.1-0.1c-0.7-1.5-1.4-3-2.1-4.6c-0.3,0.2-0.5,0.3-0.7,0.4
	c-3,2.3-6,4.7-9.1,7c-0.6,0.3-0.9,1.1-0.6,1.7c0,0,0,0,0,0.1c3.8,9.9,7.5,19.7,11.2,29.6c0.3,0.7,0.5,1.5,0.7,2.2s0.3,1.5-0.6,1.8
	s-1.3-0.3-1.6-1c-0.5-1.2-1.1-2.3-1.5-3.5c-3.5-9-7-18-10.4-27l-0.6-1.4l-2.3,1.7c-0.4,0.3-0.7,0.5-1.1,0.8
	c-0.8,0.5-1.6,0.7-2.1-0.1s-0.2-1.5,0.4-2c1.1-0.9,2.2-1.8,3.3-2.6c0.5-0.2,0.7-0.8,0.5-1.3c0-0.1-0.1-0.1-0.1-0.1
	c-0.7-1.7-1.3-3.4-2-5.1c-0.1-0.4-0.3-0.8-0.4-1.2c-0.2-0.8-0.2-1.6,0.8-1.9s1.4,0.2,1.7,1c0.7,1.7,1.3,3.3,2,5l0.5,1.2l1.1-0.8
	c2.6-2,5.3-4,7.9-6c0.6-0.4,1.2-0.8,1.8-1.2c1.6-0.8,2.6-0.5,3.4,1.1c0.9,1.8,1.8,3.5,2.7,5.4l1.1-0.8c2.5-1.8,4.9-3.6,7.4-5.3
	c1-0.7,1.7-0.5,2.2,0.6c5.8,11.9,11.6,23.9,17.3,35.8c0.5,1,0.8,2,1.2,3c0.2,0.4,0.3,0.8,0.3,1.2c0,0.4-0.2,1-0.5,1.2
	c-0.4,0.1-0.9,0-1.2-0.3c-0.6-0.8-1.1-1.7-1.5-2.6c-2.7-5.5-5.5-11-8.1-16.6c-2.9-6.1-5.7-12.3-8.5-18.5
	C192.9,20.3,192.7,20.1,192.5,19.7z"/>
<path d="M59,38.5l-20.6-20c-0.1,0.4-0.3,0.7-0.4,1.1C34,32.8,30,46,26,59.2c-0.4,1.3-0.9,2.6-1.4,3.8c-0.1,0.4-0.3,0.8-0.6,1.1
	c-0.2,0.2-0.5,0.3-0.8,0.3c-0.3-0.1-0.5-0.4-0.5-0.7c0-0.6,0.1-1.2,0.2-1.7c1.3-4.6,2.6-9.1,3.9-13.6c3.2-10.6,6.4-21.2,9.6-31.8
	c0-0.3,0.1-0.6,0.2-0.9c0.2-0.4,0.4-0.9,0.7-1c0.5-0.1,1,0,1.3,0.2C46.5,22.5,54.3,30,62,37.6c1,1,0.8,2-0.6,2.5
	C53.7,43,46,45.9,38.3,48.7c-0.2,0.1-0.4,0.1-0.7,0.2c-0.8,0.2-1.5,0-1.8-0.8c-0.3-0.7,0.1-1.4,0.7-1.7c0.1,0,0.1,0,0.2-0.1
	c1.9-0.7,3.9-1.4,5.8-2.1c5.2-1.8,10.5-3.6,15.7-5.4C58.5,38.7,58.7,38.6,59,38.5z"/>
<path class="st0" d="M288.5,24.3c-0.3,0.5-0.6,0.9-0.9,1.4c-5.6,9.3-11.1,18.5-16.7,27.8c-0.8,1.3-1.7,2.5-2.4,3.7
	c-0.4,0.6-0.7,1.3-0.9,2.1c-0.3,1.1-0.7,1.9-1.9,1.8s-1.6-1-1.7-2c-0.1-1.6-0.2-3.3-0.2-4.9c0-13.9-0.1-27.7-0.1-41.6
	c0-1.4,0.2-2.8,0.4-4.1c0.1-0.4,0.7-0.8,1-1.1c0.4,0.4,1,0.7,1.1,1.1c0.3,1.8,0.5,3.5,0.6,5.3c0.3,12.1,0.6,24.2,0.9,36.4
	c0,0.4,0,0.9,0.1,1.7c0.3-0.3,0.6-0.7,0.9-1.1c6.4-10.8,12.9-21.7,19.3-32.5c0.4-0.7,0.6-1.4,0.6-2.1c0-3.1-0.1-6.1,0-9.2
	c0-1.2,0-2.8,1.7-2.8s1.7,1.5,1.8,2.6c0.5,5.8,1,11.5,1.3,17.3c0.6,11,1.1,22,1.6,33c0.1,0.7,0.1,1.4-0.1,2.1
	c-0.4,0.7-1.2,1.6-1.8,1.6s-1.5-0.8-2-1.4c-0.3-0.3-0.2-1-0.2-1.5c-0.6-10.5-1.1-21.1-1.7-31.6c0-0.5-0.1-1.1-0.1-1.6L288.5,24.3z"
	/>
<path d="M109.8,55.8l1.1-1.2c4-4.4,7.9-8.8,11.9-13.2c0.7-0.8,1.5-1.5,2.4-2.1c0.6-0.3,1.2-0.4,1.8-0.1c0.3,0.3,0.3,1.2,0.1,1.8
	c-0.2,0.6-0.6,1.2-1,1.6c-5,5.6-10.1,11.3-15.1,16.8c-1.6,1.8-2.9,1.4-3.7-0.8c-4.6-13.3-9.1-26.7-13.6-40.1
	c-0.4-1.2-0.5-2.5-0.4-3.8c0.1-1.1,1-1.5,2.1-1.3c0.9,0.2,1.8,0.4,2.7,0.7c7.5,2.6,15,5.2,22.4,7.8c0.4,0.1,0.8,0.3,1.1,0.6
	c0.3,0.4,0.5,0.9,0.4,1.5c-0.2,0.5-0.7,0.8-1.2,0.9c-0.6,0-1.2-0.1-1.8-0.3l-21.7-7.3c-0.2-0.1-0.5-0.1-0.9-0.2c0,0.3,0.1,0.7,0.2,1
	c2,5.6,4,11.2,5.9,16.9c0.4,1.3,0.9,1.4,2.1,0.9c2.7-1.1,5.4-2.2,8.1-3.2c0.3-0.1,0.6-0.2,0.9-0.4c0.9-0.3,1.8-0.5,2.2,0.6
	c0.4,1.1-0.4,1.5-1.2,1.8c-3.2,1.3-6.5,2.6-9.7,3.8c-0.7,0.3-1.1,0.5-0.8,1.3c1.8,5.2,3.6,10.3,5.3,15.5
	C109.4,55.5,109.5,55.5,109.8,55.8z"/>
<path d="M16.3,15.5l-1.4,1.1c-3.9,3.1-7.7,6.2-11.6,9.2c-0.8,0.6-1.8,1.7-2.8,0.5s0.2-2.1,1-2.8c6.4-5.2,12.8-10.5,19.2-15.7
	c2.9-2.4,5.9-4.8,8.8-7.1c0.4-0.4,0.9-0.7,1.4-0.8c0.5,0,1,0.2,1.4,0.5c0.2,0.5,0.2,1,0,1.5c-0.2,0.4-0.6,0.8-1,1.1
	c-3.7,3-7.4,6.1-11.1,9.2c-0.5,0.4-0.8,1-0.9,1.6c-0.4,9.4-0.6,18.8-1,28.2c-0.3,6.8-0.8,13.5-1.2,20.3c0,0.3-0.1,0.7-0.2,1
	c-0.2,0.3-0.7,0.8-1,0.7c-0.5-0.1-0.8-0.4-1.1-0.8c-0.1-0.5-0.2-1-0.1-1.6c0.5-14.7,1-29.5,1.5-44.2C16.2,17,16.2,16.4,16.3,15.5z"
	/>
<path class="st0" d="M320.2,34.3c-0.4,6.4-0.9,12.8-1.3,19.2c0,0.7-0.1,1.3-0.1,2c0,1.2-0.4,1.5-1.5,1.6c-2.8,0.3-5.6,0.6-8.4,0.8
	l-11.5,1c-0.2,0-0.4,0-0.6,0c-0.5,0-1-0.3-1-0.9c0,0,0,0,0-0.1c0-0.3,0-0.6,0.1-0.9c0.5-3.9,1-7.7,1.5-11.6c0.7-5.7,1.4-11.3,2-17
	c0.2-2,0.5-4,0.7-5.9c0-0.6,0.4-1.1,0.9-1.3l0.7-0.3l18-8.6c0.1,0,0.1-0.1,0.2-0.1c1.3-0.6,1.9-0.2,1.8,1.2c-0.2,3.3-0.5,6.7-0.7,10
	C320.6,27.1,320.4,30.7,320.2,34.3z M297.7,57.3l19.4-1.9c1-13.7,1.9-27.4,2.8-41.2l-17.7,8.5c-1.1,5.8-1.6,11.5-2.3,17.2
	S298.4,51.4,297.7,57.3L297.7,57.3z"/>
<path d="M69.5,43.9c0.1,0,0.3,0,0.4,0c5.4-0.3,10.7,0,16.1,0.1c4.3,0.1,8.6,0.2,12.9,0.3c0.2,0,0.4,0,0.6,0.1
	c0.4,0.1,0.7,0.5,0.7,0.9c0,0.4-0.3,0.8-0.8,0.9c-0.4,0-0.7,0-1.1,0c-8.1-0.2-16.1-0.3-24.2-0.5c-1.5,0-2.9-0.2-4.4-0.3
	c-0.8-0.1-0.9,0-1.1,0.7c-0.1,0.3-0.2,0.7-0.2,1c-0.1,5.2-0.3,10.3-0.4,15.5c0,0.2,0,0.3,0,0.5c-0.1,0.5-0.5,0.9-1,0.9
	c-0.5,0-0.9-0.5-0.9-1c0-0.4,0-0.8,0-1.2c0.2-5.3,0.3-10.6,0.4-16c0.1-2.4,0.2-4.8,0.2-7.2s0.1-4.8,0.2-7.3c0.1-2.4,0.1-4.8,0.2-7.2
	c0.1-2.4,0.1-4.8,0.2-7.3l0.2-7.3c0-0.3,0-0.7,0.1-1c0.1-0.4,0.5-0.7,0.9-0.7c0.4,0,0.7,0.3,0.8,0.7c0.1,0.4,0.1,0.8,0.1,1.2
	c-0.2,5.5-0.3,11-0.5,16.5c-0.1,4.1-0.2,8.2-0.3,12.4c0,0.3,0,0.7,0.1,1c0.1-0.3,0.2-0.7,0.3-1c1.3-4.1,2.5-8.2,3.8-12.3
	c0.9-2.7,2-5.2,3.1-7.8c0.7-1.7,1.4-3.5,2.1-5.2c0.3-0.5,0.5-1.1,0.9-1.6c0.2-0.3,0.4-0.7,0.8-0.5s0.4,0.6,0.3,1
	c-0.2,0.5-0.4,1.1-0.5,1.6c-1,3.5-2.4,6.8-3.6,10.2c-1.2,3.1-2.2,6.3-3.2,9.4c-1.1,3.3-2,6.7-3,10C69.6,43.6,69.6,43.7,69.5,43.9z"
	/>
<path d="M222.4,54.9l0.9-1c3.4-3.8,6.8-7.6,10.3-11.3c0.6-0.7,1.3-1.3,2-1.8c0.5-0.3,1.1-0.3,1.6-0.1c0.3,0.2,0.3,1.1,0.1,1.6
	c-0.2,0.5-0.5,1-0.9,1.4c-4.3,4.8-8.6,9.7-13,14.5c-1.4,1.5-2.5,1.2-3.1-0.7c-3.9-11.5-7.8-23-11.7-34.5c-0.3-1.1-0.4-2.2-0.3-3.2
	c0.1-0.9,0.8-1.3,1.8-1.1c0.8,0.2,1.6,0.4,2.3,0.6c6.5,2.2,12.9,4.4,19.3,6.7c0.4,0.1,0.7,0.3,0.9,0.5c0.3,0.4,0.4,0.8,0.4,1.2
	c-0.2,0.4-0.6,0.7-1.1,0.8c-0.5,0-1-0.1-1.5-0.3l-18.7-6.3c-0.2-0.1-0.4-0.1-0.8-0.2c0,0.3,0.1,0.6,0.2,0.9c1.7,4.8,3.4,9.7,5,14.6
	c0.4,1.1,0.8,1.2,1.8,0.8c2.3-1,4.7-1.8,7-2.8c0.3-0.1,0.5-0.2,0.8-0.3c0.8-0.2,1.6-0.4,1.9,0.5s-0.3,1.3-1,1.6
	c-2.8,1.1-5.6,2.2-8.4,3.2c-0.6,0.2-0.9,0.4-0.7,1.1c1.5,4.4,3.1,8.9,4.6,13.3C222.1,54.7,222.2,54.7,222.4,54.9z"/>
<path class="st0" d="M357.7,15.8c-2.7,1.8-5.3,3.5-7.9,5.3c-0.2,0.2-0.2,0.8-0.1,1.2c1.7,4.6,3.5,9.2,5.2,13.8
	c1.9,5.1,3.7,10.1,5.5,15.2c0.3,0.7,0.4,1.4,0.5,2.1c0.2,0.6-0.1,1.2-0.7,1.3c-0.5,0.2-1.1-0.1-1.3-0.6c-0.5-0.7-0.8-1.4-1.1-2.2
	c-3.2-8.2-6.4-16.4-9.6-24.6c-0.5-1.4-1-2.7-1.6-4.2c-0.4,0.2-0.8,0.4-1.1,0.6c-1.8,1.1-3.6,2.2-5.3,3.3c-0.7,0.4-1.5,0.6-2.1-0.2
	s-0.1-1.5,0.6-2c2-1.4,3.9-2.8,5.9-4c0.6-0.3,0.9-0.9,0.6-1.5c0-0.1-0.1-0.1-0.1-0.2c-0.6-1.5-1.1-3.1-1.7-4.7
	c-0.3,0.2-0.5,0.2-0.7,0.4c-3.2,2.1-6.4,4.2-9.6,6.3c-0.7,0.3-1,1-0.7,1.7c0,0,0,0.1,0,0.1c3,10.1,6,20.2,9,30.4
	c0.2,0.7,0.4,1.5,0.5,2.2s0.2,1.5-0.7,1.7s-1.3-0.4-1.5-1.1c-0.5-1.2-0.9-2.4-1.3-3.6c-2.8-9.2-5.6-18.5-8.4-27.7l-0.4-1.5l-2.4,1.5
	l-1.1,0.7c-0.8,0.4-1.6,0.5-2.1-0.3s-0.1-1.5,0.6-2c1.1-0.8,2.3-1.6,3.5-2.3c0.5-0.2,0.8-0.8,0.6-1.4c0,0,0,0,0-0.1
	c-0.6-1.7-1.1-3.5-1.6-5.3c-0.1-0.4-0.2-0.7-0.3-1.1c-0.1-0.8-0.1-1.6,0.9-1.8s1.4,0.3,1.6,1.1c0.6,1.7,1.1,3.4,1.6,5.1
	c0.1,0.4,0.2,0.8,0.4,1.2c0.5-0.3,0.8-0.5,1.1-0.7c2.8-1.8,5.5-3.6,8.3-5.3c0.6-0.4,1.3-0.8,1.9-1.1c1.7-0.7,2.6-0.3,3.3,1.3
	c0.8,1.8,1.5,3.7,2.3,5.6l1.2-0.7c2.6-1.6,5.2-3.2,7.8-4.8c1.1-0.6,1.8-0.3,2.2,0.8c4.9,12.3,9.8,24.7,14.6,37c0.4,1,0.7,2,1,3
	c0.2,0.4,0.2,0.8,0.2,1.2c-0.1,0.4-0.3,1-0.6,1.1c-0.4,0.1-0.9-0.1-1.2-0.4c-0.6-0.8-1-1.7-1.4-2.6c-2.3-5.7-4.6-11.4-6.8-17.2
	c-2.4-6.3-4.7-12.7-7.1-19.1C358,16.5,357.9,16.2,357.7,15.8z"/>
<path class="st0" d="M381.2,50.6l0.9-1c3.4-3.8,6.8-7.6,10.3-11.3c0.6-0.7,1.3-1.3,2-1.8c0.5-0.3,1.1-0.3,1.6-0.1
	c0.3,0.2,0.3,1.1,0.1,1.6c-0.2,0.5-0.5,1-0.9,1.4c-4.3,4.8-8.6,9.7-13,14.5c-1.4,1.5-2.5,1.2-3.1-0.7c-3.9-11.5-7.9-23-11.7-34.5
	c-0.3-1.1-0.4-2.2-0.3-3.2c0.1-0.9,0.8-1.3,1.8-1.1c0.8,0.2,1.6,0.3,2.3,0.6c6.5,2.2,12.9,4.4,19.3,6.7c0.4,0.1,0.7,0.3,0.9,0.5
	c0.3,0.4,0.4,0.8,0.4,1.2c-0.2,0.4-0.6,0.7-1.1,0.8c-0.5,0-1-0.1-1.5-0.3l-18.7-6.3c-0.2-0.1-0.4-0.1-0.8-0.2c0,0.3,0.1,0.6,0.2,0.9
	c1.7,4.8,3.4,9.7,5,14.5c0.4,1.1,0.8,1.2,1.8,0.8c2.3-1,4.7-1.8,7-2.8c0.3-0.1,0.5-0.2,0.8-0.3c0.8-0.2,1.6-0.4,1.9,0.5
	s-0.3,1.3-1,1.6c-2.8,1.1-5.6,2.2-8.4,3.2c-0.6,0.2-0.9,0.4-0.7,1.1c1.5,4.4,3.1,8.9,4.6,13.3C380.9,50.3,381,50.3,381.2,50.6z"/>
<path d="M364.7,43.7c0.1,0,0.3-0.1,0.4-0.1c5-1.9,10.2-3.1,15.4-4.6c4.1-1.2,8.3-2.3,12.5-3.5c0.2-0.1,0.4-0.1,0.6-0.1
	c0.4,0,0.8,0.3,0.9,0.7c0.1,0.4-0.1,0.9-0.5,1c-0.3,0.1-0.7,0.3-1.1,0.3c-7.8,2.2-15.5,4.4-23.3,6.5c-1.4,0.4-2.9,0.6-4.3,1
	c-0.8,0.2-0.8,0.3-0.9,1c0,0.3,0,0.7,0.1,1c1.4,5,2.8,10,4.1,14.9c0.1,0.1,0.1,0.3,0.1,0.4c0.1,0.5-0.2,1-0.7,1.2
	c-0.5,0.1-1-0.2-1.2-0.7c-0.1-0.4-0.2-0.8-0.4-1.2c-1.4-5.1-2.8-10.3-4.3-15.4c-0.6-2.3-1.2-4.7-1.9-7c-0.7-2.3-1.3-4.7-1.9-7
	s-1.3-4.6-1.9-6.9s-1.3-4.7-1.9-7l-1.9-7c-0.1-0.3-0.2-0.7-0.2-1c0-0.4,0.3-0.8,0.7-0.9c0.4-0.1,0.8,0.1,1,0.5
	c0.2,0.4,0.3,0.7,0.4,1.1c1.5,5.3,2.9,10.6,4.4,15.9c1.1,4,2.2,7.9,3.3,11.9c0.1,0.3,0.2,0.6,0.4,0.9c0-0.3,0-0.7,0-1
	c0-4.3-0.1-8.6,0.1-12.8c0.1-2.8,0.4-5.6,0.6-8.4c0.2-1.8,0.3-3.7,0.5-5.6c0.1-0.6,0.2-1.2,0.4-1.7c0.1-0.3,0.2-0.7,0.6-0.7
	s0.5,0.5,0.5,0.9c0,0.6,0,1.1,0,1.7c0.1,3.6-0.2,7.2-0.5,10.9c-0.3,3.3-0.3,6.6-0.3,9.9c-0.1,3.5,0,7,0,10.4
	C364.6,43.4,364.6,43.5,364.7,43.7z"/>
<path d="M320.5,51l1.6-28.7c-0.4,0.2-0.7,0.3-1.1,0.4c-12.6,5.6-25.2,11.3-37.8,16.9c-1.2,0.5-2.5,1-3.8,1.5
	c-0.4,0.2-0.8,0.3-1.2,0.3c-0.3,0-0.6-0.2-0.8-0.4c-0.1-0.3,0-0.6,0.2-0.9c0.4-0.4,0.9-0.7,1.4-0.9c4.3-2,8.6-4,12.9-6
	c10.1-4.5,20.2-9.1,30.4-13.6c0.2-0.2,0.5-0.3,0.8-0.4c0.4-0.1,0.9-0.3,1.2-0.1c0.4,0.3,0.6,0.7,0.7,1.2
	c-0.6,10.8-1.2,21.6-1.9,32.5c-0.1,1.4-1,1.9-2.2,1.2c-7.2-3.9-14.4-7.9-21.6-11.8c-0.2-0.1-0.4-0.2-0.6-0.4c-0.6-0.5-1-1.1-0.6-1.9
	c0.3-0.6,1.1-0.9,1.8-0.6c0,0,0.1,0.1,0.1,0.1c1.8,1,3.6,2,5.4,3c4.8,2.8,9.6,5.5,14.4,8.3C319.9,50.7,320.2,50.8,320.5,51z"/>
<path d="M332.9,48.4c2.1,0.6,3.9,1.1,5.7,1.6c7,1.9,14,3.8,21,5.6c0.4,0.1,1,0.1,1.1,0.4c0.5,0.7,1.1,1.5,1,2.2
	c-0.1,0.6-1.1,1.2-1.8,1.5c-0.4,0.2-1.1-0.1-1.6-0.3c-8.8-2.6-17.7-5.2-26.5-7.8c-2.5-0.8-2.8-1.4-2-3.8
	c3.3-10.2,6.7-20.4,10.1-30.6c0.3-1,0.8-2,1.3-3c0.2-0.3,0.8-0.6,1-0.5c0.3,0.2,0.7,0.7,0.7,1c-0.1,1.1-0.3,2.3-0.7,3.3
	c-2.8,9.2-5.5,18.4-8.3,27.6C333.5,46.4,333.3,47.3,332.9,48.4z"/>
<path d="M266.6,39.8c0.9,0.3,1.4,0.4,1.9,0.6c7.7,2.1,15.5,4.1,23.2,6.2c2.6,0.7,3.6,1.9,3.1,3.5c-0.5,1.6-1.9,2-4.4,1.3
	c-8.6-2.3-17.3-4.6-25.9-6.8c-0.6-0.1-1.1-0.3-2-0.4c0.2,0.8,0.3,1.4,0.4,1.9c0.9,3.2,1.8,6.4,2.7,9.7c0.2,0.8,0.4,1.6,0.6,2.4
	c0.2,1.2,0.7,2.7-0.9,3.2c-1.6,0.5-2.2-0.9-2.6-2.1c-1.2-3.4-2.4-6.8-3.5-10.3c-3.8-12-7.5-24-11.2-36.1c-0.4-1.4-0.6-2.6,0.4-3.8
	c1.4-1.6,3-2,4.9-0.9c2.8,1.6,5.6,3.3,8.4,4.9c5.4,3.2,10.8,6.4,16.1,9.7c2.9,1.7,3,3.5,0.6,5.8c-3.4,3.3-6.9,6.5-10.4,9.8
	C267.7,38.7,267.3,39.1,266.6,39.8z M273.4,26.1c-6.6-4-13-7.9-19.4-11.7c-0.1,0.1-0.2,0.2-0.4,0.3c2.3,7.7,4.6,15.4,7,23.4
	C265,33.9,269.1,30.1,273.4,26.1z"/>
<path d="M265.4,61.2c0.3-1.2,0.6-2.5,0.8-3.7c6.6-2.4,13.1-4.9,19.7-7.3c2.6,0.2,5.3,0.4,7.9,0.6c0.3,0,0.6,0.1,0.6,0.2
	c0.1,0.3-2.2,1-5,1.9c-1.8,0.6-3.5,1.2-6.8,2.4c-3.1,1.1-3.8,1.5-6.4,2.5c-2.2,0.8-5.5,2-9.5,3.3"/>
</svg>
